#!Matlab matrix to amc conversion
:FULLY-SPECIFIED
:DEGREES
106
root -1.269318 0.501864 41.851380 5.685048 -6.052678 4.436854
lowerback -4.928178 2.356627 -6.867625
upperback -1.433504 3.484724 -0.573304
thorax 0.885499 1.737542 3.403375
lowerneck -23.981167 -4.021250 -12.274143
upperneck 26.186149 -4.642176 11.745579
head 13.432186 -1.684858 5.917273
rclavicle -0.000000 -0.000000
rhumerus -26.721210 18.596949 -87.356503
rradius 42.012621
rwrist -21.082192
rhand -28.856200 -18.800500
rfingers 7.125020
rthumb -2.212790 -48.768800
lclavicle -0.000000 -0.000000
lhumerus -49.819517 15.921852 67.760989
lradius 6.556022
lwrist -28.241983
lhand -19.668800 -28.799300
lfingers 7.125020
lthumb 6.659510 1.076010
rfemur 0.207493 -4.077658 12.439127
rtibia 53.392972
rfoot 21.172900 -7.354127
rtoes -20.766800
lfemur -29.016101 7.232934 -30.308182
ltibia 25.338791
lfoot -1.765670 1.447377
ltoes -22.051700
107
root -1.250234 0.600887 42.209682 5.673069 -6.257896 4.562239
lowerback -4.939999 2.177887 -6.563591
upperback -1.381526 3.215109 -0.618730
thorax 0.987656 1.606808 3.178996
lowerneck -23.950142 -3.684905 -12.064557
upperneck 26.385729 -4.150123 11.442476
head 13.425189 -1.491713 5.853153
rclavicle -0.000000 -0.000000
rhumerus -26.826781 18.435292 -88.113991
rradius 40.012597
rwrist -20.759826
rhand -28.856200 -18.800500
rfingers 7.125020
rthumb -2.212790 -48.768800
lclavicle -0.000000 -0.000000
lhumerus -48.335998 17.258550 68.166482
lradius 7.524977
lwrist -29.125601
lhand -19.668800 -28.799300
lfingers 7.125020
lthumb 6.659510 1.076010
rfemur -4.559871 -4.404632 12.472537
rtibia 60.155315
rfoot 17.766904 -10.857694
rtoes -20.766800
lfemur -26.579603 7.258799 -30.530876
ltibia 23.742738
lfoot -3.950933 1.638009
ltoes -22.051700
108
root -1.235353 0.699905 42.563383 5.670128 -6.267571 3.770549
lowerback -4.827330 1.966662 -5.481142
upperback -1.409873 2.864877 -0.353137
thorax 0.972386 1.436877 2.837504
lowerneck -23.720397 -3.323478 -11.857355
upperneck 26.673685 -3.653764 11.128823
head 13.408670 -1.303115 5.788594
rclavicle -0.000000 -0.000000
rhumerus -27.115762 18.204029 -88.733885
rradius 37.998410
rwrist -19.918273
rhand -28.856200 -18.800500
rfingers 7.125020
rthumb -2.212790 -48.768800
lclavicle -0.000000 -0.000000
lhumerus -46.799217 18.732856 68.386913
lradius 8.375256
lwrist -30.651708
lhand -19.668800 -28.799300
lfingers 7.125020
lthumb 6.659510 1.076010
rfemur -8.553915 -4.665666 13.967005
rtibia 64.647975
rfoot 13.932152 -13.474907
rtoes -20.766800
lfemur -24.534486 7.616055 -29.821251
ltibia 22.942931
lfoot -5.669521 1.419663
ltoes -22.051700
109
root -1.219148 0.792813 42.922356 5.684254 -6.091092 2.976817
lowerback -4.792722 1.681459 -4.475668
upperback -1.463038 2.429558 -0.049513
thorax 0.966998 1.221418 2.571989
lowerneck -23.432025 -2.960794 -11.618039
upperneck 27.024116 -3.173770 10.793549
head 13.407369 -1.123284 5.709045
rclavicle -0.000000 -0.000000
rhumerus -27.653751 17.807302 -89.220654
rradius 35.998641
rwrist -18.679415
rhand -28.856200 -18.800500
rfingers 7.125020
rthumb -2.212790 -48.768800
lclavicle -0.000000 -0.000000
lhumerus -44.872527 19.409263 69.411941
lradius 9.253221
lwrist -31.272624
lhand -19.668800 -28.799300
lfingers 7.125020
lthumb 6.659510 1.076010
rfemur -11.994714 -4.786622 15.593971
rtibia 67.480464
rfoot 10.220811 -15.661869
rtoes -20.766800
lfemur -22.202443 7.694342 -29.027839
ltibia 21.633353
lfoot -6.546525 1.280222
ltoes -22.051700
110
root -1.202404 0.873513 43.287271 5.714484 -5.627390 2.680113
lowerback -5.025559 1.242899 -3.970490
upperback -1.475703 1.827361 0.160030
thorax 1.127973 0.917225 2.476251
lowerneck -23.177497 -2.580069 -11.327885
upperneck 27.415713 -2.665768 10.417949
head 13.432116 -0.932630 5.610435
rclavicle -0.000000 -0.000000
rhumerus -28.487450 17.521694 -89.640248
rradius 34.271747
rwrist -17.409695
rhand -28.856200 -18.800500
rfingers 7.125020
rthumb -2.212790 -48.768800
lclavicle -0.000000 -0.000000
lhumerus -42.184514 18.005771 72.550255
lradius 10.267231
lwrist -29.055012
lhand -19.668800 -28.799300
lfingers 7.125020
lthumb 6.659510 1.076010
rfemur -15.450268 -4.909144 16.550575
rtibia 69.555591
rfoot 6.344474 -17.297715
rtoes -20.766800
lfemur -19.363544 6.916673 -28.685796
ltibia 19.308791
lfoot -6.853163 1.719337
ltoes -22.051700
111
root -1.190923 0.933228 43.652004 5.692774 -4.882992 2.684629
lowerback -5.438067 0.673877 -3.787703
upperback -1.432734 1.072938 0.343238
thorax 1.437030 0.534055 2.521739
lowerneck -23.019631 -2.194904 -11.011514
upperneck 27.976605 -2.134730 9.986036
head 13.548857 -0.738573 5.497906
rclavicle -0.000000 -0.000000
rhumerus -29.609548 17.686511 -90.073707
rradius 33.183814
rwrist -16.679642
rhand -28.856200 -18.800500
rfingers 7.125020
rthumb -2.212790 -48.768800
lclavicle -0.000000 -0.000000
lhumerus -38.955341 13.979297 77.655190
lradius 11.528567
lwrist -23.761859
lhand -19.668800 -28.799300
lfingers 7.125020
lthumb 6.659510 1.076010
rfemur -19.059912 -5.234839 17.050377
rtibia 71.152916
rfoot 2.181398 -17.559837
rtoes -20.766800
lfemur -16.848760 5.434570 -28.696682
ltibia 17.571492
lfoot -7.552384 2.556627
ltoes -22.051700
112
root -1.189053 0.965801 44.011255 5.565503 -3.983530 2.347036
lowerback -5.662636 0.098685 -3.392329
upperback -1.410659 0.294276 0.657787
thorax 1.639837 0.141147 2.581581
lowerneck -22.881841 -1.860189 -10.721278
upperneck 28.699303 -1.675789 9.551005
head 13.745326 -0.581111 5.385943
rclavicle -0.000000 -0.000000
rhumerus -31.113990 17.989290 -90.506692
rradius 32.504590
rwrist -16.323292
rhand -28.856200 -18.800500
rfingers 7.125020
rthumb -2.212790 -48.768800
lclavicle -0.000000 -0.000000
lhumerus -35.719504 8.975006 82.395550
lradius 13.118169
lwrist -18.198739
lhand -19.668800 -28.799300
lfingers 7.125020
lthumb 6.659510 1.076010
rfemur -22.415590 -5.715911 18.159341
rtibia 71.509346
rfoot -1.655582 -16.485376
rtoes -20.766800
lfemur -15.017458 4.167625 -28.353760
ltibia 17.526064
lfoot -8.944702 2.916835
ltoes -22.051700
113
root -1.193008 0.973134 44.369159 5.397953 -2.873368 1.845059
lowerback -5.646832 -0.449319 -2.990746
upperback -1.422549 -0.455878 1.019424
thorax 1.688600 -0.234779 2.688455
lowerneck -22.704209 -1.652728 -10.540243
upperneck 29.253279 -1.402930 9.260709
head 13.894064 -0.495608 5.310908
rclavicle -0.000000 -0.000000
rhumerus -33.060111 18.179298 -90.881517
rradius 32.115690
rwrist -16.141557
rhand -28.856200 -18.800500
rfingers 7.125020
rthumb -2.212790 -48.768800
lclavicle -0.000000 -0.000000
lhumerus -32.612558 3.856290 85.951694
lradius 15.069413
lwrist -13.263323
lhand -19.668800 -28.799300
lfingers 7.125020
lthumb 6.659510 1.076010
rfemur -25.288028 -6.284122 19.667453
rtibia 70.325258
rfoot -4.722457 -14.747356
rtoes -20.766800
lfemur -13.401697 3.322045 -27.771296
ltibia 18.155399
lfoot -10.527875 2.691424
ltoes -22.051700
114
root -1.198542 0.960093 44.729729 5.258906 -1.742211 1.638404
lowerback -5.604025 -0.966019 -2.951338
upperback -1.422354 -1.150447 1.281589
thorax 1.731909 -0.582541 2.897136
lowerneck -22.603936 -1.523315 -10.430072
upperneck 29.675690 -1.231774 9.081022
head 14.023811 -0.444143 5.269759
rclavicle -0.000000 -0.000000
rhumerus -35.115406 18.457201 -91.255993
rradius 32.129597
rwrist -16.363927
rhand -28.856200 -18.800500
rfingers 7.125020
rthumb -2.212790 -48.768800
lclavicle -0.000000 -0.000000
lhumerus -29.785159 -1.331906 88.688050
lradius 17.190348
lwrist -8.564280
lhand -19.668800 -28.799300
lfingers 7.125020
lthumb 6.659510 1.076010
rfemur -27.711171 -6.851938 20.715115
rtibia 68.273225
rfoot -7.036482 -12.815028
rtoes -20.766800
lfemur -11.987210 2.639447 -27.488657
ltibia 18.953628
lfoot -12.225637 2.312091
ltoes -22.051700
115
root -1.206595 0.932801 45.091796 5.156780 -0.764845 1.734625
lowerback -5.649746 -1.470984 -3.232483
upperback -1.406345 -1.814254 1.451188
thorax 1.838762 -0.915573 3.187580
lowerneck -22.635853 -1.367637 -10.297265
upperneck 30.192789 -1.010765 8.882703
head 14.214371 -0.370277 5.232557
rclavicle 0.000000 -0.000000
rhumerus -37.154212 18.957543 -91.739538
rradius 32.478586
rwrist -17.022747
rhand -28.856200 -18.800500
rfingers 7.125020
rthumb -2.212790 -48.768800
lclavicle 0.000000 -0.000000
lhumerus -27.216655 -6.565328 90.819661
lradius 19.359848
lwrist -4.048568
lhand -19.668800 -28.799300
lfingers 7.125020
lthumb 6.659510 1.076010
rfemur -29.854172 -7.337925 21.208052
rtibia 65.660957
rfoot -8.825597 -10.851241
rtoes -20.766800
lfemur -10.759303 2.004255 -27.569699
ltibia 19.910462
lfoot -14.122636 1.935050
ltoes -22.051700
116
root -1.219833 0.896937 45.453857 5.112656 0.218146 1.988468
lowerback -5.689812 -1.955606 -3.712528
upperback -1.399915 -2.442304 1.560905
thorax 1.936506 -1.230498 3.527351
lowerneck -22.671396 -1.250665 -10.219961
upperneck 30.573779 -0.844510 8.774692
head 14.360154 -0.311995 5.225192
rclavicle 0.000000 -0.000000
rhumerus -39.297154 19.469545 -92.239231
rradius 33.045286
rwrist -17.849103
rhand -28.856200 -18.800500
rfingers 7.125020
rthumb -2.212790 -48.768800
lclavicle 0.000000 -0.000000
lhumerus -24.815626 -11.418076 92.131122
lradius 21.586667
lwrist -0.148076
lhand -19.668800 -28.799300
lfingers 7.125020
lthumb 6.659510 1.076010
rfemur -31.705671 -7.714957 21.382091
rtibia 62.321961
rfoot -10.206238 -9.035383
rtoes -20.766800
lfemur -9.454407 1.555079 -27.810375
ltibia 20.555556
lfoot -15.896745 1.443678
ltoes -22.051700
117
root -1.238416 0.856924 45.816168 5.148098 1.301095 2.317962
lowerback -5.642420 -2.384836 -4.296594
upperback -1.413364 -2.992564 1.617226
thorax 1.968037 -1.505903 3.875264
lowerneck -22.620992 -1.250255 -10.274757
upperneck 30.595924 -0.854789 8.869271
head 14.367656 -0.313014 5.272506
rclavicle 0.000000 -0.000000
rhumerus -41.472995 19.762578 -92.602704
rradius 33.715669
rwrist -18.593569
rhand -28.856200 -18.800500
rfingers 7.125020
rthumb -2.212790 -48.768800
lclavicle 0.000000 -0.000000
lhumerus -22.533865 -15.475689 92.543940
lradius 23.817653
lwrist 2.792712
lhand -19.668800 -28.799300
lfingers 7.125020
lthumb 6.659510 1.076010
rfemur -33.205212 -7.831108 21.295393
rtibia 58.263101
rfoot -11.271491 -7.613516
rtoes -20.766800
lfemur -7.876612 1.363374 -28.060808
ltibia 20.379395
lfoot -17.155552 0.833488
ltoes -22.051700
118
root -1.260352 0.816226 46.180264 5.260670 2.384310 2.699813
lowerback -5.564416 -2.758036 -4.924812
upperback -1.439964 -3.464049 1.627715
thorax 1.969731 -1.742214 4.204488
lowerneck -22.518929 -1.324775 -10.410307
upperneck 30.374553 -0.982836 9.101233
head 14.280718 -0.351821 5.355703
rclavicle 0.000000 -0.000000
rhumerus -43.554662 19.834525 -92.836870
rradius 34.402104
rwrist -19.222611
rhand -28.856200 -18.800500
rfingers 7.125020
rthumb -2.212790 -48.768800
lclavicle 0.000000 -0.000000
lhumerus -20.300615 -18.810413 92.272896
lradius 25.986165
lwrist 4.915601
lhand -19.668800 -28.799300
lfingers 7.125020
lthumb 6.659510 1.076010
rfemur -34.431876 -7.505190 20.878283
rtibia 53.591033
rfoot -12.178223 -6.665588
rtoes -20.766800
lfemur -5.983061 1.330210 -28.304770
ltibia 19.295355
lfoot -17.860933 0.203721
ltoes -22.051700
